M48
METRIC,LZ,000.000
;FILE_FORMAT=3:3
;TYPE=PLATED
;Layer: PTH_Through
;EasyEDA v6.4.31, 2022-02-05 19:12:57
;bf2cb295ba724ca7aa620009b2cc85ec,0a318e337cfa45e088b33f9f44b42fdc,10
;Gerber Generator version 0.2
;Holesize 1 = 0.306 mm
T01C0.306
;Holesize 2 = 0.701 mm
T02C0.701
;Holesize 3 = 0.850 mm
T03C0.850
;Holesize 4 = 0.901 mm
T04C0.901
;Holesize 5 = 0.915 mm
T05C0.915
;Holesize 6 = 1.000 mm
T06C1.000
;Holesize 7 = 1.016 mm
T07C1.016
;Holesize 8 = 1.101 mm
T08C1.101
%
G05
G90
T01
X040347Y072246
X045720Y035560
T02
X070333Y039536G85X070333Y041436
X064859Y037408G85X066759Y037408
X066759Y043483G85X064859Y043483
T03
X067041Y053340
X065039Y053340
X067041Y073660
X065039Y073660
T04
X053340Y073660
X053340Y071120
X053340Y068580
X053340Y066040
T05
X066040Y066040
X066040Y063500
X066040Y060960
T06
X038989Y073660
X038989Y071120
X038989Y068580
X038989Y066040
T07
X012700Y071120
X012700Y068580
X012700Y066040
X012700Y063500
X012700Y060960
X012700Y058420
X012700Y055880
X012700Y053340
X012700Y050800
X012700Y048260
X012700Y045720
X012700Y043180
X012700Y040640
X012700Y038100
X012700Y035560
X027940Y035560
X027940Y038100
X027940Y040640
X027940Y043180
X027940Y045720
X027940Y048260
X027940Y050800
X027940Y053340
X027940Y055880
X027940Y058420
X027940Y060960
X027940Y063500
X027940Y066040
X027940Y068580
X027940Y071120
T08
X055881Y038099
X055881Y040639
X055881Y043179
X055881Y045719
X055881Y048259
X055881Y050799
X035561Y050799
X035561Y048259
X035561Y045719
X035561Y043179
X035561Y040639
X035561Y038099
M30
