G04 Layer: BottomLayer*
G04 EasyEDA v6.4.31, 2022-02-05 19:12:57*
G04 bf2cb295ba724ca7aa620009b2cc85ec,0a318e337cfa45e088b33f9f44b42fdc,10*
G04 Gerber Generator version 0.2*
G04 Scale: 100 percent, Rotated: No, Reflected: No *
G04 Dimensions in millimeters *
G04 leading zeros omitted , absolute positions ,4 integer and 5 decimal *
%FSLAX45Y45*%
%MOMM*%

%ADD11C,0.5080*%
%ADD12C,0.6100*%
%ADD13C,1.5300*%
%ADD14C,2.0320*%
%ADD15C,2.0000*%
%ADD16C,1.5240*%
%ADD17R,1.5240X1.5240*%
%ADD18C,1.8000*%
%ADD20R,2.0000X2.0000*%
%ADD21C,0.2032*%

%LPD*%
D21*
X7008368Y5615178D02*
G01*
X6842252Y5615178D01*
X6925309Y5531612D02*
G01*
X6925309Y5698236D01*
X7008368Y7647178D02*
G01*
X6842252Y7647178D01*
X6925309Y7563612D02*
G01*
X6925309Y7730236D01*
D11*
X1270000Y4826000D02*
G01*
X1422603Y4978603D01*
X1422603Y5969507D01*
X2947492Y7494396D01*
X3956405Y7494396D01*
X4034713Y7416088D01*
X4034713Y7224598D01*
X5588000Y4572000D02*
G01*
X4572000Y3556000D01*
X1270000Y3810000D02*
G01*
X1859610Y3220389D01*
X4490389Y3220389D01*
X5588000Y4318000D01*
X6604000Y6604000D02*
G01*
X6448983Y6448983D01*
X6448983Y5388940D01*
X6503924Y5334000D01*
X6604000Y6604000D02*
G01*
X6604000Y7265923D01*
X6503924Y7366000D01*
X3898900Y6604000D02*
G01*
X3771823Y6604000D01*
X2794000Y6858000D02*
G01*
X3517823Y6858000D01*
X3771823Y6604000D01*
X6580936Y3740785D02*
G01*
X6323380Y3998340D01*
X6323380Y5153456D01*
X6503924Y5334000D01*
X5588000Y4064000D02*
G01*
X5588000Y3810000D01*
X5334000Y7366000D02*
G01*
X4606696Y6638696D01*
X4606696Y5368696D01*
X3556000Y4318000D01*
X6604000Y6350000D02*
G01*
X6756374Y6502374D01*
X6756374Y7313701D01*
X6704075Y7366000D01*
X6604000Y6096000D02*
G01*
X6704075Y5995923D01*
X6704075Y5334000D01*
X6580936Y4348276D02*
G01*
X6704075Y4471415D01*
X6704075Y5334000D01*
X3556000Y4826000D02*
G01*
X3398748Y4668748D01*
X3398748Y3926103D01*
X2871444Y3398799D01*
X2189200Y3398799D01*
X1270000Y4318000D01*
X5588000Y4826000D02*
G01*
X4074261Y3312261D01*
X2021738Y3312261D01*
X1270000Y4064000D01*
D13*
G01*
X6704075Y5334000D03*
G01*
X6503924Y5334000D03*
G01*
X6704075Y7366000D03*
G01*
X6503924Y7366000D03*
D14*
G01*
X1270000Y7112000D03*
G01*
X1270000Y6858000D03*
G01*
X1270000Y6604000D03*
G01*
X1270000Y6350000D03*
G01*
X1270000Y6096000D03*
G01*
X1270000Y5842000D03*
G01*
X1270000Y5588000D03*
G01*
X1270000Y5334000D03*
G01*
X1270000Y5080000D03*
G01*
X1270000Y4826000D03*
G01*
X1270000Y4572000D03*
G01*
X1270000Y4318000D03*
G01*
X1270000Y4064000D03*
G01*
X1270000Y3810000D03*
G01*
X1270000Y3556000D03*
G01*
X2794000Y3556000D03*
G01*
X2794000Y3810000D03*
G01*
X2794000Y4064000D03*
G01*
X2794000Y4318000D03*
G01*
X2794000Y4572000D03*
G01*
X2794000Y4826000D03*
G01*
X2794000Y5080000D03*
G01*
X2794000Y5334000D03*
G01*
X2794000Y5588000D03*
G01*
X2794000Y5842000D03*
G01*
X2794000Y6096000D03*
G01*
X2794000Y6350000D03*
G01*
X2794000Y6604000D03*
G01*
X2794000Y6858000D03*
G01*
X2794000Y7112000D03*
D15*
G01*
X6604000Y6604000D03*
G01*
X6604000Y6350000D03*
G01*
X6604000Y6096000D03*
D16*
G01*
X3898900Y7366000D03*
G01*
X3898900Y7112000D03*
G01*
X3898900Y6858000D03*
D17*
G01*
X3898900Y6604000D03*
D18*
G01*
X5334000Y7366000D03*
G01*
X5334000Y7112000D03*
G01*
X5334000Y6858000D03*
G36*
X5244000Y6693999D02*
G01*
X5423999Y6693999D01*
X5423999Y6514000D01*
X5244000Y6514000D01*
G37*
D20*
G01*
X5588076Y3809898D03*
D15*
G01*
X5588050Y4063898D03*
G01*
X5588050Y4317898D03*
G01*
X5588050Y4571898D03*
G01*
X5588050Y4825898D03*
G01*
X5588050Y5079898D03*
G01*
X3556050Y5079898D03*
G01*
X3556050Y4825898D03*
G01*
X3556050Y4571898D03*
G01*
X3556050Y4317898D03*
G01*
X3556050Y4063898D03*
D20*
G01*
X3556076Y3809898D03*
D12*
G01*
X4034713Y7224598D03*
G01*
X4572000Y3556000D03*
D15*
X7033259Y3948556D02*
G01*
X7033259Y4148556D01*
X6480936Y3740785D02*
G01*
X6680936Y3740785D01*
X6680936Y4348276D02*
G01*
X6480936Y4348276D01*
M02*
