G04 Layer: TopSolderMaskLayer*
G04 EasyEDA v6.4.31, 2022-02-05 19:12:57*
G04 bf2cb295ba724ca7aa620009b2cc85ec,0a318e337cfa45e088b33f9f44b42fdc,10*
G04 Gerber Generator version 0.2*
G04 Scale: 100 percent, Rotated: No, Reflected: No *
G04 Dimensions in millimeters *
G04 leading zeros omitted , absolute positions ,4 integer and 5 decimal *
%FSLAX45Y45*%
%MOMM*%

%ADD24C,2.2032*%
%ADD25C,1.7332*%
%ADD26C,2.2352*%
%ADD27C,1.7272*%
%ADD28R,1.7272X1.7272*%
%ADD29C,2.0032*%

%LPD*%
D24*
X7033259Y3948556D02*
G01*
X7033259Y4148556D01*
X6480936Y3740785D02*
G01*
X6680936Y3740785D01*
X6680936Y4348276D02*
G01*
X6480936Y4348276D01*
D25*
G01*
X6704075Y5334000D03*
G01*
X6503924Y5334000D03*
G01*
X6704075Y7366000D03*
G01*
X6503924Y7366000D03*
D26*
G01*
X1270000Y7112000D03*
G01*
X1270000Y6858000D03*
G01*
X1270000Y6604000D03*
G01*
X1270000Y6350000D03*
G01*
X1270000Y6096000D03*
G01*
X1270000Y5842000D03*
G01*
X1270000Y5588000D03*
G01*
X1270000Y5334000D03*
G01*
X1270000Y5080000D03*
G01*
X1270000Y4826000D03*
G01*
X1270000Y4572000D03*
G01*
X1270000Y4318000D03*
G01*
X1270000Y4064000D03*
G01*
X1270000Y3810000D03*
G01*
X1270000Y3556000D03*
G01*
X2794000Y3556000D03*
G01*
X2794000Y3810000D03*
G01*
X2794000Y4064000D03*
G01*
X2794000Y4318000D03*
G01*
X2794000Y4572000D03*
G01*
X2794000Y4826000D03*
G01*
X2794000Y5080000D03*
G01*
X2794000Y5334000D03*
G01*
X2794000Y5588000D03*
G01*
X2794000Y5842000D03*
G01*
X2794000Y6096000D03*
G01*
X2794000Y6350000D03*
G01*
X2794000Y6604000D03*
G01*
X2794000Y6858000D03*
G01*
X2794000Y7112000D03*
D24*
G01*
X6604000Y6604000D03*
G01*
X6604000Y6350000D03*
G01*
X6604000Y6096000D03*
D27*
G01*
X3898900Y7366000D03*
G01*
X3898900Y7112000D03*
G01*
X3898900Y6858000D03*
D28*
G01*
X3898900Y6604000D03*
D29*
G01*
X5334000Y7366000D03*
G01*
X5334000Y7112000D03*
G01*
X5334000Y6858000D03*
G36*
X5233924Y6503923D02*
G01*
X5233924Y6704076D01*
X5434075Y6704076D01*
X5434075Y6503923D01*
G37*
G36*
X5478018Y3699763D02*
G01*
X5478018Y3919981D01*
X5698236Y3919981D01*
X5698236Y3699763D01*
G37*
D24*
G01*
X5588050Y4063898D03*
G01*
X5588050Y4317898D03*
G01*
X5588050Y4571898D03*
G01*
X5588050Y4825898D03*
G01*
X5588050Y5079898D03*
G01*
X3556050Y5079898D03*
G01*
X3556050Y4825898D03*
G01*
X3556050Y4571898D03*
G01*
X3556050Y4317898D03*
G01*
X3556050Y4063898D03*
G36*
X3446018Y3699763D02*
G01*
X3446018Y3919981D01*
X3666236Y3919981D01*
X3666236Y3699763D01*
G37*
M02*
