G04 Layer: BottomSilkscreenLayer*
G04 EasyEDA v6.4.31, 2022-02-05 19:12:57*
G04 bf2cb295ba724ca7aa620009b2cc85ec,0a318e337cfa45e088b33f9f44b42fdc,10*
G04 Gerber Generator version 0.2*
G04 Scale: 100 percent, Rotated: No, Reflected: No *
G04 Dimensions in millimeters *
G04 leading zeros omitted , absolute positions ,4 integer and 5 decimal *
%FSLAX45Y45*%
%MOMM*%

%ADD10C,0.2540*%
%ADD21C,0.2032*%

%LPD*%
D21*
X6490208Y4565142D02*
G01*
X6656324Y4565142D01*
X6573265Y4648200D02*
G01*
X6573265Y4481829D01*
X6450329Y3422650D02*
G01*
X6441186Y3404107D01*
X6422643Y3385565D01*
X6404356Y3376421D01*
X6367272Y3376421D01*
X6348729Y3385565D01*
X6330441Y3404107D01*
X6321043Y3422650D01*
X6311900Y3450336D01*
X6311900Y3496310D01*
X6321043Y3524250D01*
X6330441Y3542537D01*
X6348729Y3561079D01*
X6367272Y3570223D01*
X6404356Y3570223D01*
X6422643Y3561079D01*
X6441186Y3542537D01*
X6450329Y3524250D01*
X6450329Y3496310D01*
X6404356Y3496310D02*
G01*
X6450329Y3496310D01*
X6511290Y3376421D02*
G01*
X6511290Y3570223D01*
X6511290Y3376421D02*
G01*
X6640829Y3570223D01*
X6640829Y3376421D02*
G01*
X6640829Y3570223D01*
X6701790Y3376421D02*
G01*
X6701790Y3570223D01*
X6701790Y3376421D02*
G01*
X6766306Y3376421D01*
X6793991Y3385565D01*
X6812534Y3404107D01*
X6821677Y3422650D01*
X6831075Y3450336D01*
X6831075Y3496310D01*
X6821677Y3524250D01*
X6812534Y3542537D01*
X6793991Y3561079D01*
X6766306Y3570223D01*
X6701790Y3570223D01*
D10*
X6134100Y2971800D02*
G01*
X6134100Y4394200D01*
X7035800Y4394200D01*
X7035800Y2971800D01*
X6134100Y2971800D01*
X6134100Y2969310D02*
G01*
X6134100Y3274110D01*
X7023100Y3274110D01*
X7023100Y2969310D01*
X6134100Y2969310D01*
M02*
